<?xml version="1.0" standalone="no"?>
<!DOCTYPE svg PUBLIC "-//W3C//DTD SVG 20010904//EN"
 "http://www.w3.org/TR/2001/REC-SVG-20010904/DTD/svg10.dtd">
<svg version="1.0" xmlns="http://www.w3.org/2000/svg"
 width="1000.000000pt" height="1000.000000pt" viewBox="0 0 1000.000000 1000.000000"
 preserveAspectRatio="xMidYMid meet">
<metadata>
Created by potrace 1.14, written by Peter Selinger 2001-2017
</metadata>
<g transform="translate(0.000000,1000.000000) scale(0.100000,-0.100000)"
fill="#000000" stroke="none">
<path d="M4888 9493 c-35 -60 -55 -162 -63 -327 -2 -51 -10 -95 -17 -104 -10
-11 -14 -72 -15 -226 -1 -116 -2 -214 -3 -218 0 -8 -102 2 -113 11 -4 4 -24
86 -45 183 -29 133 -44 186 -65 215 -14 21 -29 57 -33 81 -4 23 -10 42 -14 42
-4 0 -12 26 -19 58 -15 69 -73 191 -105 221 l-23 22 -12 -45 c-19 -78 -15
-166 18 -351 4 -22 3 -57 -2 -77 -7 -28 -3 -61 14 -135 12 -54 24 -102 25
-108 1 -5 5 -29 9 -51 l7 -42 -91 2 -91 1 -20 55 c-11 30 -25 64 -29 75 -5 11
-17 41 -26 67 -10 26 -30 58 -46 72 -16 15 -29 31 -29 37 0 5 -27 65 -60 132
-58 120 -128 217 -155 217 -24 0 -14 -171 14 -245 12 -33 22 -67 23 -75 0 -8
6 -34 14 -58 8 -23 14 -62 14 -86 0 -25 13 -79 31 -126 17 -45 30 -83 28 -85
-2 -2 -20 -6 -39 -9 -19 -3 -61 -12 -93 -21 -32 -8 -63 -13 -68 -9 -5 3 -27
34 -49 68 -22 34 -51 69 -65 76 -14 8 -34 28 -45 45 -10 17 -29 42 -41 55 -11
14 -37 49 -56 78 -37 55 -99 114 -153 146 l-33 19 7 -53 c10 -75 31 -131 93
-250 31 -58 58 -121 60 -140 3 -19 20 -61 38 -92 l33 -57 -36 -27 c-20 -15
-52 -41 -70 -58 l-32 -30 -50 56 c-28 31 -60 60 -71 63 -12 4 -71 57 -133 119
-108 108 -208 179 -226 160 -21 -22 75 -220 137 -282 7 -7 13 -17 13 -21 0 -4
11 -20 24 -36 13 -15 29 -45 35 -66 7 -22 41 -75 76 -118 59 -73 63 -80 51
-103 -7 -13 -21 -54 -31 -90 l-18 -66 -114 93 c-74 60 -128 96 -153 103 -22 5
-52 19 -67 31 -147 113 -229 158 -320 177 -29 6 -29 -3 3 -66 17 -34 65 -91
137 -162 61 -60 120 -124 131 -142 17 -27 181 -169 338 -292 23 -18 27 -30 33
-99 l8 -79 -24 15 c-181 116 -455 272 -486 276 -20 3 -84 30 -142 59 -58 30
-125 61 -150 70 -49 17 -151 30 -151 19 0 -13 58 -90 92 -121 18 -18 59 -48
90 -68 32 -20 58 -40 58 -44 0 -4 15 -16 34 -26 18 -9 49 -37 69 -61 20 -24
49 -50 64 -58 16 -7 126 -73 247 -146 120 -72 221 -130 223 -127 2 2 16 -7 29
-21 l26 -26 24 39 c13 22 24 32 24 24 1 -8 3 -22 5 -30 1 -8 6 -35 9 -60 6
-38 17 -107 31 -185 2 -11 6 -31 9 -45 3 -14 8 -38 11 -54 2 -16 9 -53 15 -82
8 -38 8 -64 0 -93 -18 -67 -20 -133 -5 -162 14 -26 69 -54 86 -43 15 9 10 -15
-12 -57 -25 -49 -87 -210 -94 -245 -3 -13 -7 -36 -10 -51 -3 -16 -8 -35 -10
-44 -3 -8 -7 -40 -10 -71 -3 -30 -11 -74 -20 -97 -8 -23 -14 -45 -15 -49 -1
-35 -14 -103 -19 -106 -4 -3 -35 13 -68 35 -66 42 -65 39 -93 169 -20 92 -19
92 -43 84 -12 -4 -24 -9 -27 -13 -3 -3 -18 -6 -35 -7 -16 0 -56 -6 -87 -13
l-57 -12 -53 35 c-66 45 -96 46 -136 5 -44 -45 -60 -34 -59 40 0 36 5 62 11
62 16 2 57 5 166 13 52 3 119 9 150 12 30 4 73 7 95 8 l40 2 -1 59 c-1 33 -2
83 -3 112 l-1 52 -107 -4 c-60 -3 -128 -7 -153 -9 -25 -2 -84 -8 -132 -11
-100 -8 -91 -17 -103 105 -3 36 -8 79 -11 97 -5 31 -5 32 25 23 17 -5 31 -7
31 -5 0 3 10 1 23 -4 13 -5 39 -12 58 -15 19 -3 45 -8 59 -11 14 -4 79 -17
145 -30 66 -13 130 -27 143 -31 12 -3 22 -2 23 2 3 29 12 76 25 125 21 86 19
101 -14 98 -15 -2 -33 0 -40 5 -7 4 -55 17 -105 27 -410 87 -476 99 -513 93
-45 -8 -39 -8 -129 5 -137 21 -213 24 -280 11 l-66 -12 22 -24 c29 -31 150
-89 214 -104 28 -6 57 -15 66 -20 9 -5 33 -12 53 -15 20 -4 39 -11 41 -16 3
-4 -52 -95 -122 -200 l-128 -192 -58 -20 -57 -19 -148 90 c-81 49 -163 95
-182 101 -44 15 -236 135 -233 147 0 5 -122 83 -273 174 -201 121 -275 171
-280 188 -5 18 -52 55 -74 57 -3 0 -16 8 -30 18 -54 38 -130 87 -228 146
l-104 63 -36 -29 c-53 -43 -73 -74 -87 -137 -13 -56 -13 -56 13 -74 60 -41
230 -142 239 -142 5 0 18 -9 28 -20 10 -11 23 -20 30 -20 6 0 29 -13 51 -29
21 -16 54 -32 73 -36 19 -4 58 -22 87 -41 163 -104 471 -287 484 -287 23 0
185 -95 232 -136 24 -21 115 -82 203 -136 88 -54 162 -99 163 -101 2 -1 1 -12
-3 -23 -6 -20 -7 -20 -45 4 l-39 25 -16 -22 c-24 -36 -19 -73 16 -102 17 -14
35 -26 40 -26 5 0 9 -8 9 -19 0 -10 17 -29 39 -44 l39 -26 46 73 c37 59 50 73
66 69 19 -5 49 -33 35 -33 -4 0 -2 -7 5 -15 9 -11 9 -19 -4 -36 -14 -20 -13
-23 11 -42 l25 -20 17 20 c24 31 56 37 86 17 l26 -17 -73 -22 c-73 -20 -140
-54 -188 -93 l-25 -20 30 -13 c17 -6 75 -12 130 -13 55 0 102 -3 105 -6 17
-20 72 -50 80 -45 5 3 10 -1 10 -10 0 -8 9 -22 19 -31 17 -15 18 -20 5 -50 -8
-18 -14 -40 -14 -47 0 -21 55 -72 100 -92 l38 -17 -96 -50 c-54 -28 -113 -62
-132 -76 -40 -29 -112 -103 -106 -109 2 -2 34 -4 70 -4 63 0 143 17 211 45 71
30 141 48 197 51 63 4 71 1 162 -62 26 -18 51 -33 57 -33 22 0 5 -18 -46 -48
-31 -19 -66 -49 -78 -67 -12 -19 -39 -43 -59 -55 -20 -11 -38 -24 -40 -28 -2
-4 -28 -24 -58 -45 -30 -20 -67 -48 -82 -61 -32 -28 -98 -114 -98 -127 0 -12
82 -3 139 16 25 8 100 42 166 75 65 33 130 60 144 60 13 0 73 29 132 65 59 36
110 65 114 65 4 0 4 -12 0 -27 -10 -41 -7 -145 5 -177 10 -27 8 -33 -33 -75
-24 -25 -50 -61 -57 -79 -19 -49 -40 -56 -113 -38 -34 8 -78 17 -97 20 -19 3
-48 8 -65 11 -16 2 -73 7 -125 10 -52 3 -113 8 -135 11 -22 2 -66 7 -98 10
-32 3 -77 8 -100 12 -40 7 -43 9 -55 57 -13 49 -16 159 -7 243 l5 43 -57 -6
c-159 -18 -263 -127 -250 -258 3 -29 7 -61 10 -72 3 -12 8 -48 12 -80 4 -33 9
-71 11 -85 7 -43 18 -241 18 -330 0 -93 -12 -323 -18 -355 -2 -11 -7 -42 -10
-70 -11 -88 -28 -159 -43 -182 -31 -47 -26 -74 27 -163 27 -46 50 -85 50 -87
0 -3 -9 -12 -21 -21 l-20 -17 21 -99 c12 -55 26 -110 31 -123 7 -19 4 -28 -15
-44 -14 -12 -22 -27 -19 -34 2 -8 -8 -20 -26 -29 -16 -9 -32 -20 -36 -25 -3
-5 6 -35 19 -65 l25 -55 -32 -26 c-42 -33 -45 -35 -94 -68 -24 -15 -43 -35
-43 -45 0 -14 -7 -17 -32 -14 -29 3 -102 -41 -558 -332 -289 -185 -547 -349
-575 -366 -27 -17 -117 -74 -200 -126 -130 -84 -163 -100 -249 -124 -122 -34
-133 -49 -101 -126 11 -27 169 -241 195 -264 3 -3 34 -41 68 -85 35 -44 68
-87 75 -95 7 -8 26 -33 42 -55 16 -22 32 -42 35 -45 3 -3 21 -25 40 -50 19
-25 39 -50 45 -56 5 -7 88 -111 184 -231 173 -218 217 -263 259 -263 28 0 29
2 37 95 3 44 8 94 9 110 2 17 7 68 11 115 4 47 9 96 10 110 1 14 6 63 9 110 4
47 9 96 11 110 2 14 7 59 10 100 4 41 8 76 10 78 2 2 29 -40 60 -93 32 -52 62
-98 66 -101 15 -9 49 6 49 22 0 8 4 22 10 32 5 9 39 100 75 202 54 154 70 190
97 212 33 28 58 36 58 18 0 -5 -4 -10 -10 -10 -5 0 -7 -7 -3 -16 3 -9 12 -13
21 -9 8 3 19 0 23 -6 9 -15 50 0 88 31 l23 20 -20 34 -21 35 90 56 c105 67
109 79 56 166 -24 39 -31 61 -26 75 11 29 11 29 -25 77 -19 24 -31 49 -27 54
13 20 133 85 198 107 101 35 103 36 103 60 0 43 13 65 51 90 21 14 43 26 49
26 5 0 22 -22 38 -50 25 -47 53 -63 67 -41 7 12 106 33 155 34 70 1 128 -23
169 -70 58 -65 82 -124 84 -203 0 -23 -10 -208 -18 -304 -2 -23 -6 -88 -10
-146 -4 -58 -8 -125 -10 -150 -5 -70 -16 -228 -20 -302 -6 -101 11 -107 165
-59 58 18 116 36 130 41 14 5 86 27 160 50 151 47 185 62 194 85 8 22 -10 54
-47 85 -22 19 -30 36 -32 65 -6 87 -16 224 -21 301 l-6 81 40 23 c64 36 64 50
-5 93 -33 21 -44 35 -49 63 -10 54 3 145 24 160 9 7 13 14 7 14 -5 0 17 16 50
36 33 19 69 46 80 59 17 20 159 112 270 175 17 9 53 31 81 48 28 18 57 32 64
32 8 0 25 10 38 23 l24 22 16 -21 c10 -12 57 -78 106 -148 191 -272 480 -571
700 -724 79 -56 71 -62 301 196 41 46 31 44 140 26 22 -4 79 -7 126 -8 85 -1
87 -2 128 -38 22 -21 41 -42 41 -46 0 -16 196 -212 211 -212 19 0 165 106 258
188 184 161 400 402 535 596 48 68 92 126 100 129 7 3 19 -3 27 -14 7 -10 21
-19 29 -19 24 0 402 -237 423 -265 10 -14 41 -37 68 -51 66 -37 89 -75 91
-155 2 -77 -10 -103 -61 -129 -63 -31 -60 -49 13 -94 l28 -18 -6 -91 c-7 -90
-9 -121 -21 -261 -6 -66 -8 -72 -45 -104 -22 -18 -40 -42 -40 -53 0 -28 31
-55 86 -72 27 -9 146 -47 264 -86 248 -80 262 -84 286 -67 14 11 16 27 15 92
-2 43 -4 92 -6 107 -2 15 -6 85 -10 155 -10 173 -13 226 -22 372 -4 69 -8 170
-8 225 0 89 3 106 27 156 39 78 89 125 149 139 63 15 164 5 215 -21 21 -10 41
-19 44 -19 3 0 21 25 39 55 l34 56 26 -17 c14 -10 35 -23 46 -31 11 -7 24 -33
30 -59 l10 -46 75 -26 c134 -48 253 -126 211 -140 -6 -2 -23 -22 -37 -43 -19
-31 -22 -44 -14 -59 8 -15 3 -31 -25 -79 -36 -62 -41 -104 -13 -123 7 -4 43
-27 81 -50 37 -24 67 -46 67 -51 0 -4 -7 -21 -15 -36 -13 -27 -13 -30 13 -54
31 -29 82 -46 82 -27 0 7 8 9 21 5 19 -6 21 -4 15 19 -8 32 0 33 43 3 36 -24
40 -33 136 -312 52 -152 68 -180 94 -166 9 5 41 50 71 100 30 50 58 91 61 91
3 0 7 -21 8 -48 0 -26 3 -56 5 -67 2 -11 7 -67 11 -125 4 -58 8 -112 10 -120
1 -8 6 -59 10 -112 3 -54 8 -110 10 -125 1 -16 6 -69 10 -120 8 -106 18 -122
63 -104 42 17 84 65 318 356 388 484 546 680 564 702 30 34 60 100 60 127 0
34 -27 50 -123 75 -44 11 -95 31 -115 43 -56 35 -471 303 -962 623 -470 306
-442 289 -487 290 -33 0 -40 3 -33 15 6 11 -8 25 -58 59 -37 24 -77 52 -89 63
l-21 20 24 54 c13 30 24 58 24 63 0 4 -16 16 -35 27 -25 13 -33 23 -30 35 4
12 -1 20 -15 24 -17 6 -20 13 -16 38 7 46 46 219 51 228 3 4 -6 14 -20 23
l-24 16 50 84 c81 135 70 171 -77 248 l-89 46 -7 74 c-7 79 -2 487 6 553 6 44
25 175 31 215 3 14 7 43 11 64 3 22 10 50 15 63 17 45 10 117 -16 170 -37 74
-118 125 -218 136 l-47 6 2 -87 c4 -144 -22 -252 -59 -250 -10 1 -56 -2 -102
-7 -46 -4 -114 -8 -152 -10 -66 -2 -68 -1 -101 34 -19 20 -69 68 -112 106 -43
39 -84 82 -92 97 -8 16 -30 42 -49 60 -27 24 -35 39 -35 64 0 19 -7 52 -16 74
-9 23 -15 42 -13 43 2 1 18 12 35 23 27 19 32 20 50 7 40 -31 121 -66 159 -71
21 -2 56 -15 77 -29 21 -13 43 -21 48 -18 5 3 11 1 15 -5 20 -33 242 -104 287
-92 38 9 -72 131 -171 190 -24 14 -55 36 -69 49 -14 13 -29 23 -34 23 -6 0
-32 23 -60 52 -45 47 -49 53 -33 63 10 5 47 29 83 53 36 23 66 42 68 42 2 0
25 13 51 29 52 31 68 32 148 7 63 -20 181 -31 231 -21 l39 7 -50 44 c-27 25
-78 59 -112 76 -35 17 -60 34 -58 39 3 4 -2 23 -11 42 -16 34 -16 36 7 64 13
16 41 38 62 48 21 10 40 22 43 27 3 4 -6 27 -20 51 -15 24 -26 46 -26 48 0 2
48 4 108 5 69 0 119 6 141 15 l34 14 -39 27 c-47 33 -70 66 -56 80 6 6 8 16 6
22 -2 6 8 19 23 28 l27 16 44 -71 c25 -40 46 -74 48 -76 8 -9 84 44 80 56 -3
8 11 23 33 38 22 13 42 33 46 45 6 18 -10 90 -20 90 -2 0 -20 -10 -41 -22 -35
-21 -37 -21 -50 -3 -12 16 -11 20 9 30 32 18 225 134 272 164 22 14 59 41 81
61 23 19 59 44 80 55 22 11 62 34 89 51 28 17 55 29 62 27 7 -3 65 27 129 66
64 39 121 71 125 71 5 0 9 5 9 10 0 6 4 10 9 10 5 0 73 38 150 85 78 47 150
85 161 85 20 0 62 23 88 47 7 7 19 13 26 13 7 0 21 9 31 20 10 11 25 20 32 20
8 0 38 15 66 34 29 18 85 52 126 76 l73 42 -4 42 c-7 62 -35 112 -84 153 l-44
35 -97 -58 c-54 -32 -119 -73 -145 -91 -26 -18 -52 -33 -58 -33 -5 0 -18 -8
-28 -17 -9 -10 -36 -27 -59 -38 -23 -11 -44 -29 -47 -40 -4 -13 -97 -75 -281
-185 -151 -91 -275 -169 -275 -175 0 -13 -193 -130 -245 -149 -22 -7 -115 -58
-205 -113 -90 -55 -171 -98 -180 -96 -13 3 -60 64 -60 77 0 3 17 10 38 17 21
6 49 19 62 29 l23 18 -45 20 c-44 19 -69 26 -133 38 -16 3 -33 11 -37 17 -4 7
-12 19 -18 27 -6 8 -48 72 -93 142 -83 125 -83 126 -58 131 121 24 187 43 250
75 41 20 76 42 79 49 2 7 -17 18 -45 27 -37 11 -83 14 -203 10 -167 -5 -168
-5 -250 0 -30 2 -89 -2 -130 -10 -134 -24 -129 -26 -180 76 -24 49 -42 91 -40
93 3 2 61 29 130 60 78 35 138 70 160 91 20 20 52 42 72 50 20 9 38 19 40 23
1 5 33 23 70 41 71 36 144 94 179 143 l21 31 -63 -3 c-71 -2 -142 -21 -269
-69 -47 -18 -105 -34 -129 -36 -27 -2 -103 -31 -188 -69 -79 -36 -147 -65
-153 -65 -5 0 -17 12 -27 28 -10 15 -20 29 -23 32 -9 8 -50 68 -50 73 0 3 37
29 83 58 191 122 217 141 244 179 15 22 35 42 44 45 9 3 28 16 41 28 13 12 42
34 64 49 59 41 136 120 162 165 l22 41 -42 -4 c-58 -6 -132 -31 -198 -67 -30
-16 -68 -37 -85 -45 -16 -8 -41 -23 -55 -32 -14 -9 -41 -17 -60 -19 -23 -2
-86 -36 -199 -108 l-164 -105 -22 28 c-13 16 -39 47 -59 69 l-36 40 149 145
c82 80 152 156 157 170 4 14 41 63 83 110 42 46 84 94 94 105 25 28 92 164 84
172 -16 15 -164 -61 -227 -117 -14 -12 -41 -34 -60 -49 -19 -14 -42 -33 -51
-43 -10 -9 -38 -25 -62 -36 -29 -13 -91 -65 -172 -144 -70 -67 -133 -129 -141
-135 -18 -18 -19 -18 -80 28 l-54 42 35 43 c19 24 52 65 73 92 20 26 39 49 42
52 15 15 99 128 108 147 7 12 12 30 13 40 0 10 27 56 60 103 69 98 124 207
138 268 9 41 8 42 -12 36 -52 -16 -129 -78 -222 -178 -55 -59 -113 -114 -130
-122 -16 -8 -55 -47 -85 -86 -30 -39 -91 -117 -136 -173 l-80 -102 -66 35 -67
36 100 198 c71 140 102 211 104 242 2 24 13 62 25 83 11 21 20 43 20 49 0 6 6
24 14 40 28 59 44 100 51 129 11 50 15 145 5 145 -28 0 -111 -89 -162 -174
-21 -33 -42 -66 -47 -72 -5 -6 -17 -26 -26 -45 -10 -19 -34 -48 -53 -66 -34
-32 -58 -73 -181 -321 -37 -75 -67 -122 -74 -119 -7 2 -37 12 -67 22 -30 10
-56 19 -57 20 -2 1 27 87 63 191 86 250 84 242 84 294 0 25 12 90 26 145 43
165 43 160 35 295 l-2 35 -49 -53 c-46 -49 -120 -182 -120 -215 0 -8 -6 -20
-14 -26 -8 -7 -18 -27 -22 -44 -4 -18 -21 -48 -38 -68 -22 -27 -48 -86 -90
-210 -94 -276 -96 -280 -114 -275 -10 3 -37 10 -60 16 l-44 11 7 57 c3 31 11
89 16 127 6 39 13 90 16 115 3 25 9 64 13 88 4 24 5 64 2 90 -5 44 -5 142 2
287 2 70 -13 167 -32 201 -8 15 -14 11 -38 -27 -30 -48 -69 -154 -77 -209 -10
-70 -38 -170 -56 -202 -11 -18 -23 -60 -26 -93 -4 -33 -9 -69 -11 -80 -2 -11
-6 -40 -9 -65 -3 -25 -7 -54 -9 -65 -4 -21 -19 -142 -21 -160 0 -10 -43 -10
-102 0 l-33 6 0 222 c0 175 -3 228 -15 250 -8 15 -17 63 -20 105 -12 173 -15
194 -30 245 -9 28 -24 67 -33 85 l-18 32 -16 -27z m2611 -2725 c-5 -24 -12
-70 -16 -103 -7 -55 -10 -60 -33 -60 -21 0 -28 11 -59 87 -19 49 -32 90 -30
93 5 4 97 21 130 24 14 1 15 -5 8 -41z m-675 -588 c58 -81 63 -94 56 -120 -8
-26 -6 -31 14 -36 12 -3 28 -4 36 -2 28 6 22 -31 -7 -44 -15 -7 -44 -22 -64
-34 l-36 -23 -22 84 c-12 46 -24 107 -27 137 -2 29 -7 62 -10 73 -3 11 -8 28
-10 38 -10 32 5 17 70 -73z m241 -1469 c24 -17 48 -31 53 -31 5 0 15 -6 21
-14 12 -14 6 -16 -94 -32 -22 -3 -66 -14 -98 -24 -32 -10 -57 -15 -55 -11 2 4
16 41 33 83 l30 75 34 -8 c18 -4 53 -21 76 -38z m-3870 -101 c18 -35 17 -35
-29 -13 -35 16 -35 17 -13 29 12 7 23 12 24 13 1 1 9 -12 18 -29z m254 -1821
c43 -26 67 -83 63 -143 -4 -50 -5 -51 -119 -117 -22 -13 -73 -43 -113 -67 -68
-39 -75 -42 -111 -32 -50 14 -92 67 -95 122 -5 100 43 171 61 90 9 -42 61 -99
108 -121 50 -23 71 -16 28 10 -45 27 -80 86 -82 140 -3 46 5 69 22 69 5 0 33
15 60 34 61 41 126 47 178 15z m3304 -79 c65 -41 67 -44 67 -83 0 -55 -32
-117 -75 -146 -42 -29 -39 -37 8 -22 46 16 101 72 117 121 24 74 62 34 62 -66
1 -81 -24 -114 -105 -144 -24 -9 -42 -1 -179 84 l-151 93 0 49 c0 69 24 119
68 141 58 30 109 23 188 -27z"/>
<path d="M2098 7473 c-26 -6 -23 -12 30 -60 45 -42 75 -58 247 -138 44 -21 92
-48 106 -61 23 -22 163 -78 434 -174 44 -15 93 -33 109 -39 16 -7 35 -10 42
-7 8 3 17 -1 21 -8 5 -8 16 -16 27 -18 15 -2 25 15 57 102 40 109 39 120 -6
120 -12 0 -25 4 -30 9 -6 5 -75 33 -155 61 -80 29 -181 66 -225 82 -148 55
-180 64 -210 62 -26 -3 -137 23 -245 56 -37 12 -173 20 -202 13z"/>
</g>
</svg>
